<svg width="20" height="26" viewBox="0 0 20 26" fill="none" xmlns="http://www.w3.org/2000/svg">
<mask id="path-1-inside-1" fill="white">
<path fill-rule="evenodd" clip-rule="evenodd" d="M3.00619 1.31293C2.37099 1.31305 1.87982 1.80979 1.87866 2.39239L1.8376 22.947C1.83643 23.5296 2.32566 24.0263 2.96091 24.0262L6.00088 24.0259C6.4637 24.0258 6.89247 23.7834 7.12136 23.3807L7.12139 23.3806C7.16674 23.3009 7.21225 23.2208 7.25835 23.1404C7.46999 22.7714 7.69345 22.397 7.95124 22.0669C8.48487 21.3836 9.18807 20.8668 10.2818 20.8667C11.3785 20.8666 12.0662 21.3864 12.5891 22.0694C12.8407 22.3981 13.0607 22.7719 13.2716 23.1377L13.3402 23.2568C13.6178 23.7392 14.1343 24.025 14.6913 24.0249L17.5901 24.0246C18.2253 24.0245 18.7166 23.5277 18.7177 22.9451L18.7588 2.39049C18.7599 1.80786 18.2707 1.31121 17.6355 1.31128L14.8487 1.31159C14.2286 1.31166 13.6514 1.6263 13.3388 2.1625L13.2955 2.2369C13.082 2.60273 12.8618 2.97568 12.6118 3.30198C12.3592 3.63188 12.061 3.935 11.6782 4.15347C11.2905 4.37479 10.8427 4.49396 10.3145 4.49402C9.22607 4.49414 8.51466 3.99012 7.97584 3.30856C7.71519 2.97885 7.49136 2.60433 7.28138 2.23087C7.20876 2.10171 7.13858 1.97419 7.06876 1.84733C6.88627 1.51572 6.5371 1.31319 6.1583 1.31316L3.00628 1.31293H3.00619ZM7.66106 0.854321C7.58526 0.721525 7.53419 0.569553 7.42658 0.460943C7.33292 0.366411 7.20533 0.313242 7.07211 0.313232L3.00837 0.312929L3.00828 0.312929C1.84808 0.31306 0.880979 1.23065 0.878658 2.3925L0.837597 22.9471C0.835276 24.109 1.79871 25.0264 2.95891 25.0262L7.02257 25.0258C7.19332 25.0257 7.35244 24.9386 7.44456 24.7946C7.64555 24.4806 7.82788 24.1597 7.9972 23.8617L7.99731 23.8615L7.99799 23.8604C8.04133 23.7841 8.08382 23.7093 8.12555 23.6366C8.33565 23.2702 8.52883 22.9503 8.73887 22.6814C9.1409 22.1666 9.57812 21.8668 10.2798 21.8667C10.9786 21.8666 11.4004 22.1635 11.7946 22.6784C12.0015 22.9487 12.192 23.2691 12.4051 23.6386L12.4734 23.7572L12.4734 23.7573C12.6633 24.0875 12.8711 24.4488 13.1103 24.8046C13.203 24.9424 13.3582 25.025 13.5244 25.025L17.5881 25.0246C18.7483 25.0244 19.7154 24.1069 19.7177 22.945L19.7588 2.39038C19.7611 1.22852 18.7977 0.311148 17.6375 0.311279L13.5722 0.311738C13.4335 0.311753 13.301 0.369353 13.2062 0.470776C13.1166 0.566657 13.0654 0.692286 12.9941 0.802437C12.8036 1.09663 12.6346 1.38674 12.4783 1.65484L12.4783 1.65485L12.432 1.73431C12.2147 2.10679 12.0243 2.42622 11.8184 2.69497C11.6153 2.96012 11.4125 3.15473 11.1839 3.28524C10.9602 3.41291 10.6861 3.49398 10.3165 3.49402C9.60952 3.4941 9.16317 3.19633 8.76081 2.68737C8.55087 2.42181 8.35825 2.10389 8.1533 1.73938C8.08979 1.62643 8.02421 1.50731 7.95664 1.38458C7.86195 1.21259 7.76334 1.03349 7.66106 0.854321ZM4.92908 7.15584C4.92971 6.8797 5.15408 6.65584 5.43022 6.65584L8.68307 6.65584C8.95921 6.65584 9.18256 6.8797 9.18193 7.15584C9.1813 7.43198 8.95693 7.65584 8.68079 7.65584L5.42794 7.65584C5.1518 7.65584 4.92845 7.43199 4.92908 7.15584ZM11.9354 6.6551C11.6593 6.6551 11.4349 6.87896 11.4343 7.1551C11.4336 7.43124 11.657 7.6551 11.9331 7.6551L15.186 7.6551C15.4621 7.6551 15.6865 7.43124 15.6871 7.1551C15.6877 6.87896 15.4644 6.6551 15.1883 6.6551L11.9354 6.6551ZM4.9082 18.2071C4.90883 17.931 5.1332 17.7071 5.40934 17.7071L8.66219 17.7071C8.93833 17.7071 9.16168 17.931 9.16105 18.2071C9.16042 18.4832 8.93605 18.7071 8.65991 18.7071L5.40706 18.7071C5.13092 18.7071 4.90757 18.4832 4.9082 18.2071ZM11.915 17.7064C11.6389 17.7064 11.4145 17.9302 11.4139 18.2064C11.4132 18.4825 11.6366 18.7064 11.9127 18.7064L15.1656 18.7064C15.4417 18.7064 15.6661 18.4825 15.6667 18.2064C15.6674 17.9302 15.444 17.7064 15.1679 17.7064H11.915Z"/>
</mask>
<path d="M1.87866 2.39239L2.87866 2.39256L1.87866 2.39239ZM3.00619 1.31293L3.00801 0.312929L3.00782 0.312929L3.00619 1.31293ZM1.8376 22.947L0.837598 22.9468L0.837598 22.9468L1.8376 22.947ZM2.96091 24.0262L2.95919 25.0262H2.9592L2.96091 24.0262ZM7.12139 23.3806L6.25218 22.8876L6.24606 22.8987L7.12139 23.3806ZM7.25835 23.1404L6.39112 22.6441L6.39112 22.6441L7.25835 23.1404ZM7.95124 22.0669L8.73893 22.6815L8.73894 22.6815L7.95124 22.0669ZM10.2818 20.8667L10.2835 19.8667H10.2835L10.2818 20.8667ZM12.5891 22.0694L11.7947 22.6782H11.7947L12.5891 22.0694ZM13.2716 23.1377L14.1384 22.6375L14.1381 22.6369L13.2716 23.1377ZM17.5901 24.0246L17.5884 25.0246H17.5884L17.5901 24.0246ZM18.7177 22.9451L19.7177 22.9453L18.7177 22.9451ZM18.7588 2.39049L17.7588 2.39031L17.7588 2.39032L18.7588 2.39049ZM17.6355 1.31128L17.6338 2.31128L17.6355 1.31128ZM13.2955 2.2369L14.159 2.73968L14.1591 2.73945L13.2955 2.2369ZM12.6118 3.30198L13.4053 3.90914L13.4053 3.90914L12.6118 3.30198ZM11.6782 4.15347L11.1837 3.2852L11.1837 3.2852L11.6782 4.15347ZM10.3145 4.49402L10.3162 3.49402L10.3145 4.49402ZM7.97584 3.30856L7.19093 3.9296L7.19093 3.9296L7.97584 3.30856ZM7.28138 2.23087L8.15326 1.73957L8.15326 1.73957L7.28138 2.23087ZM3.00628 1.31293L3.00818 0.312929H3.0081L3.00628 1.31293ZM7.07211 0.313232L7.07022 1.31323L7.07211 0.313232ZM3.00837 0.312929L3.01027 -0.687069H3.01008L3.00837 0.312929ZM3.00828 0.312929L3.00657 1.31293H3.00657L3.00828 0.312929ZM0.878658 2.3925L1.87866 2.39268L0.878658 2.3925ZM0.837597 22.9471L-0.162402 22.947L0.837597 22.9471ZM2.95891 25.0262L2.9572 26.0262H2.9572L2.95891 25.0262ZM7.02257 25.0258L7.02429 24.0258H7.02429L7.02257 25.0258ZM7.44456 24.7946L8.28658 25.3326L8.28658 25.3325L7.44456 24.7946ZM7.9972 23.8617L8.8664 24.3546L8.86721 24.3532L7.9972 23.8617ZM7.99731 23.8615L7.1281 23.3687L7.1273 23.3701L7.99731 23.8615ZM7.99799 23.8604L7.12878 23.3675L7.12877 23.3675L7.99799 23.8604ZM8.12555 23.6366L8.99279 24.1329L8.99279 24.1329L8.12555 23.6366ZM8.73887 22.6814L7.95118 22.0668L7.95118 22.0668L8.73887 22.6814ZM10.2798 21.8667L10.2815 20.8667H10.2815L10.2798 21.8667ZM11.7946 22.6784L11.0002 23.2871L11.0002 23.2871L11.7946 22.6784ZM12.4051 23.6386L13.272 23.1385L13.2716 23.1378L12.4051 23.6386ZM12.4734 23.7572L11.6065 24.2573L11.6106 24.2645L11.6149 24.2717L12.4734 23.7572ZM12.4734 23.7573L13.3405 23.2576L13.3362 23.2501L13.3318 23.2428L12.4734 23.7573ZM13.1103 24.8046L12.2802 25.3636L12.2802 25.3637L13.1103 24.8046ZM13.5244 25.025L13.5262 24.025H13.5261L13.5244 25.025ZM17.5881 25.0246L17.5864 26.0246L17.5881 25.0246ZM19.7177 22.945L18.7177 22.9448L18.7177 22.9448L19.7177 22.945ZM19.7588 2.39038L20.7588 2.39055L20.7588 2.39055L19.7588 2.39038ZM17.6375 0.311279L17.6392 -0.688719L17.6375 0.311279ZM13.5722 0.311738L13.5705 1.31174L13.5722 0.311738ZM12.4783 1.65484L13.3094 2.20954L13.3265 2.18385L13.3421 2.15715L12.4783 1.65484ZM12.4783 1.65485L11.6473 1.10015L11.6302 1.12577L11.6146 1.15239L12.4783 1.65485ZM12.432 1.73431L13.2955 2.23709L13.2957 2.23678L12.432 1.73431ZM11.8184 2.69497L11.025 2.08781L11.025 2.08781L11.8184 2.69497ZM11.1839 3.28524L10.6894 2.41697L10.6894 2.41697L11.1839 3.28524ZM10.3165 3.49402L10.3182 2.49402L10.3165 3.49402ZM8.76081 2.68737L9.54572 2.06632L9.54571 2.06632L8.76081 2.68737ZM8.1533 1.73938L7.28142 2.23068L7.28142 2.23069L8.1533 1.73938ZM7.95664 1.38458L8.83285 0.901057L7.95664 1.38458ZM5.43022 6.65584L5.4284 7.65584L5.43022 6.65584ZM4.92908 7.15584L3.92908 7.15539L4.92908 7.15584ZM8.68307 6.65584L8.6849 5.65585L8.68307 6.65584ZM9.18193 7.15584L8.18193 7.15539L9.18193 7.15584ZM8.68079 7.65584L8.68261 6.65584L8.68079 7.65584ZM5.42794 7.65584L5.42612 8.65584L5.42794 7.65584ZM11.4343 7.1551L12.4343 7.15556L11.4343 7.1551ZM11.9354 6.6551L11.9372 5.6551L11.9354 6.6551ZM11.9331 7.6551L11.935 6.6551L11.9331 7.6551ZM15.186 7.6551L15.1841 8.6551L15.186 7.6551ZM15.1883 6.6551L15.1864 7.6551L15.1883 6.6551ZM5.40934 17.7071L5.40752 18.7071H5.40752L5.40934 17.7071ZM8.66219 17.7071L8.66401 16.7071H8.66401L8.66219 17.7071ZM9.16105 18.2071L10.161 18.2076L10.161 18.2076L9.16105 18.2071ZM8.65991 18.7071L8.66173 17.7071H8.66173L8.65991 18.7071ZM5.40706 18.7071L5.40524 19.7071H5.40524L5.40706 18.7071ZM11.9127 18.7064L11.9109 19.7064H11.9109L11.9127 18.7064ZM15.1656 18.7064L15.1674 17.7064H15.1674L15.1656 18.7064ZM15.6667 18.2064L14.6667 18.2059L15.6667 18.2064ZM7.66106 0.854321L6.79238 1.35128L7.66106 0.854321ZM12.9941 0.802437L13.8332 1.34478L12.9941 0.802437ZM14.6913 24.0249L14.6896 25.0249L14.6913 24.0249ZM6.00088 24.0259L6.00259 23.0259L6.00088 24.0259ZM2.87866 2.39256C2.87867 2.38537 2.89794 2.31295 3.00455 2.31293L3.00782 0.312929C1.84403 0.31315 0.880972 1.23421 0.878658 2.39222L2.87866 2.39256ZM2.8376 22.9472L2.87866 2.39256L0.878658 2.39222L0.837598 22.9468L2.8376 22.9472ZM2.96262 23.0262C2.8562 23.0262 2.83758 22.9541 2.8376 22.9472L0.837598 22.9468C0.835284 24.1052 1.79513 25.0264 2.95919 25.0262L2.96262 23.0262ZM6.00259 23.0259L2.96262 23.0262L2.9592 25.0262L5.99917 25.0259L6.00259 23.0259ZM6.24606 22.8987L6.24603 22.8988L7.9967 23.8626L7.99673 23.8626L6.24606 22.8987ZM6.39112 22.6441C6.3439 22.7264 6.29745 22.8081 6.25225 22.8877L7.99054 23.8736C8.03603 23.7936 8.0806 23.7152 8.12559 23.6367L6.39112 22.6441ZM7.16355 21.4523C6.85807 21.8434 6.6044 22.2722 6.39112 22.6441L8.12559 23.6367C8.33558 23.2706 8.52882 22.9505 8.73893 22.6815L7.16355 21.4523ZM10.2835 19.8667C8.79679 19.8669 7.82791 20.6016 7.16355 21.4523L8.73894 22.6815C9.14183 22.1657 9.57935 21.8668 10.2801 21.8667L10.2835 19.8667ZM13.3836 21.4606C12.7327 20.6105 11.7793 19.8666 10.2835 19.8667L10.2801 21.8667C10.9777 21.8666 11.3997 22.1623 11.7947 22.6782L13.3836 21.4606ZM14.1381 22.6369C13.9292 22.2747 13.6798 21.8476 13.3836 21.4606L11.7947 22.6782C12.0017 22.9486 12.1922 23.2692 12.4051 23.6384L14.1381 22.6369ZM14.207 22.7566L14.1384 22.6375L12.4048 23.6378L12.4734 23.757L14.207 22.7566ZM17.5918 23.0246L14.693 23.0249L14.6896 25.0249L17.5884 25.0246L17.5918 23.0246ZM17.7177 22.9449C17.7177 22.9521 17.6984 23.0246 17.5918 23.0246L17.5884 25.0246C18.7523 25.0244 19.7154 24.1034 19.7177 22.9453L17.7177 22.9449ZM17.7588 2.39032L17.7177 22.9449L19.7177 22.9453L19.7588 2.39066L17.7588 2.39032ZM17.6338 2.31128C17.7402 2.31126 17.7588 2.38336 17.7588 2.39031L19.7588 2.39066C19.7611 1.23235 18.8013 0.311148 17.6372 0.311279L17.6338 2.31128ZM14.847 2.31159L17.6338 2.31128L17.6372 0.311279L14.8504 0.311594L14.847 2.31159ZM14.1591 2.73945L14.2025 2.66504L12.4752 1.65995L12.4318 1.73436L14.1591 2.73945ZM13.4053 3.90914C13.6992 3.52539 13.9492 3.09913 14.159 2.73968L12.432 1.73413C12.2148 2.10632 12.0243 2.42596 11.8184 2.69483L13.4053 3.90914ZM12.1727 5.02174C12.7096 4.71533 13.1031 4.30376 13.4053 3.90914L11.8184 2.69482C11.6153 2.96 11.4124 3.15466 11.1837 3.2852L12.1727 5.02174ZM10.3128 5.49402C10.9995 5.49394 11.6209 5.33671 12.1727 5.02174L11.1837 3.2852C10.96 3.41287 10.6859 3.49398 10.3162 3.49402L10.3128 5.49402ZM7.19093 3.9296C7.86559 4.78299 8.84197 5.49419 10.3128 5.49402L10.3162 3.49402C9.61018 3.4941 9.16373 3.19725 8.76074 2.68751L7.19093 3.9296ZM6.4095 2.72218C6.6246 3.10474 6.8796 3.53579 7.19093 3.9296L8.76074 2.68751C8.55077 2.42191 8.35813 2.10393 8.15326 1.73957L6.4095 2.72218ZM6.19246 2.3307C6.26195 2.45696 6.33429 2.58842 6.4095 2.72218L8.15326 1.73957C8.08322 1.615 8.0152 1.49142 7.94506 1.36395L6.19246 2.3307ZM3.00438 2.31293L6.15641 2.31316L6.1602 0.313164L3.00818 0.312929L3.00438 2.31293ZM3.00436 2.31293H3.00446L3.0081 0.312929H3.00801L3.00436 2.31293ZM7.07022 1.31323C6.93699 1.31322 6.80932 1.26004 6.71557 1.16542L8.13759 -0.243533C7.85652 -0.527221 7.47366 -0.686736 7.07401 -0.686766L7.07022 1.31323ZM3.00647 1.31293L7.07022 1.31323L7.07401 -0.686766L3.01027 -0.687069L3.00647 1.31293ZM3.00657 1.31293L3.00666 1.31293L3.01008 -0.687069H3.00999L3.00657 1.31293ZM1.87866 2.39268C1.87982 1.81184 2.36924 1.313 3.00657 1.31293L3.00999 -0.687069C1.32692 -0.68688 -0.11786 0.649453 -0.121342 2.39233L1.87866 2.39268ZM1.8376 22.9473L1.87866 2.39268L-0.121342 2.39233L-0.162402 22.947L1.8376 22.9473ZM2.96062 24.0262C2.3235 24.0263 1.83644 23.5279 1.8376 22.9473L-0.162402 22.947C-0.165884 24.6901 1.27393 26.0264 2.9572 26.0262L2.96062 24.0262ZM7.02429 24.0258L2.96062 24.0262L2.9572 26.0262L7.02086 26.0258L7.02429 24.0258ZM6.60254 24.2567C6.69457 24.1129 6.85355 24.0258 7.02429 24.0258L7.02086 26.0258C7.53309 26.0257 8.01031 25.7643 8.28658 25.3326L6.60254 24.2567ZM7.12799 23.3689C6.95684 23.6701 6.7871 23.9683 6.60254 24.2567L8.28658 25.3325C8.50399 24.9928 8.69892 24.6493 8.8664 24.3546L7.12799 23.3689ZM7.1273 23.3701L7.12719 23.3703L8.86721 24.3532L8.86733 24.353L7.1273 23.3701ZM7.12877 23.3675L7.1281 23.3687L8.86653 24.3544L8.8672 24.3532L7.12877 23.3675ZM7.25832 23.1402C7.21543 23.215 7.17195 23.2915 7.12878 23.3675L8.86719 24.3532C8.91071 24.2766 8.95221 24.2036 8.99279 24.1329L7.25832 23.1402ZM7.95118 22.0668C7.69333 22.3969 7.46983 22.7714 7.25832 23.1402L8.99279 24.1329C9.20147 23.769 9.36433 23.5037 9.52656 23.296L7.95118 22.0668ZM10.2815 20.8667C9.77815 20.8668 9.3208 20.9771 8.90732 21.21C8.50512 21.4366 8.19997 21.7482 7.95118 22.0668L9.52656 23.296C9.6798 23.0998 9.79427 23.0041 9.88661 22.9521C9.96767 22.9064 10.0798 22.8667 10.2781 22.8667L10.2815 20.8667ZM12.5891 22.0696C12.3469 21.7533 12.0483 21.4396 11.6494 21.2113C11.2381 20.9759 10.7828 20.8667 10.2815 20.8667L10.2781 22.8667C10.4755 22.8667 10.5806 22.9058 10.6535 22.9475C10.7387 22.9963 10.8481 23.0886 11.0002 23.2871L12.5891 22.0696ZM13.2716 23.1378C13.0608 22.7724 12.8408 22.3984 12.5891 22.0696L11.0002 23.2871C11.1623 23.499 11.3232 23.7659 11.5386 24.1393L13.2716 23.1378ZM13.3403 23.2572L13.272 23.1385L11.5382 24.1386L11.6065 24.2573L13.3403 23.2572ZM13.3318 23.2428L13.3318 23.2427L11.6149 24.2717L11.615 24.2718L13.3318 23.2428ZM13.9405 24.2456C13.7237 23.9232 13.5326 23.5916 13.3405 23.2576L11.6063 24.257C11.7941 24.5835 12.0185 24.9745 12.2802 25.3636L13.9405 24.2456ZM13.5261 24.025C13.6924 24.025 13.8477 24.1076 13.9405 24.2456L12.2802 25.3637C12.5583 25.7772 13.024 26.0251 13.5227 26.025L13.5261 24.025ZM17.5898 24.0246L13.5262 24.025L13.5227 26.025L17.5864 26.0246L17.5898 24.0246ZM18.7177 22.9448C18.7166 23.5257 18.2271 24.0245 17.5898 24.0246L17.5864 26.0246C19.2695 26.0244 20.7142 24.688 20.7177 22.9452L18.7177 22.9448ZM18.7588 2.3902L18.7177 22.9448L20.7177 22.9452L20.7588 2.39055L18.7588 2.3902ZM17.6358 1.31128C18.2729 1.31121 18.7599 1.80962 18.7588 2.3902L20.7588 2.39055C20.7623 0.647422 19.3225 -0.688909 17.6392 -0.688719L17.6358 1.31128ZM13.5705 1.31174L17.6358 1.31128L17.6392 -0.688719L13.5739 -0.688261L13.5705 1.31174ZM13.9363 1.15281C13.8416 1.25413 13.7091 1.31172 13.5705 1.31174L13.5739 -0.688261C13.1579 -0.688214 12.7603 -0.515426 12.4761 -0.211258L13.9363 1.15281ZM13.3421 2.15715C13.4997 1.88671 13.6575 1.61631 13.8332 1.34478L12.1549 0.260095C11.9498 0.576956 11.7694 0.886773 11.6146 1.15253L13.3421 2.15715ZM13.3094 2.20955L13.3094 2.20954L11.6473 1.10014L11.6473 1.10015L13.3094 2.20955ZM13.2957 2.23678L13.342 2.15732L11.6146 1.15239L11.5683 1.23185L13.2957 2.23678ZM12.6119 3.30213C12.8619 2.97574 13.0822 2.6026 13.2955 2.23709L11.5685 1.23154C11.3471 1.61099 11.1867 1.87671 11.025 2.08781L12.6119 3.30213ZM11.6784 4.15351C12.0611 3.93506 12.3592 3.63199 12.6119 3.30213L11.025 2.08781C10.8714 2.28826 10.764 2.3744 10.6894 2.41697L11.6784 4.15351ZM10.3148 4.49402C10.8431 4.49396 11.2908 4.37474 11.6784 4.15351L10.6894 2.41697C10.6536 2.43742 10.613 2.45494 10.5605 2.46828C10.5067 2.48193 10.4292 2.49401 10.3182 2.49402L10.3148 4.49402ZM7.9759 3.30842C8.22768 3.6269 8.5361 3.93449 8.94018 4.1574C9.35397 4.38566 9.81155 4.49408 10.3148 4.49402L10.3182 2.49402C10.1145 2.49405 9.9954 2.45361 9.90868 2.40577C9.81223 2.35257 9.6963 2.2568 9.54572 2.06632L7.9759 3.30842ZM7.28142 2.23069C7.49131 2.60398 7.71518 2.97862 7.9759 3.30842L9.54571 2.06632C9.38657 1.86501 9.22519 1.60379 9.02518 1.24807L7.28142 2.23069ZM7.08042 1.8681C7.14754 1.99001 7.21533 2.11315 7.28142 2.23068L9.02518 1.24807C8.96425 1.13971 8.90088 1.02461 8.83285 0.901057L7.08042 1.8681ZM6.79238 1.35128C6.89023 1.52268 6.98517 1.69509 7.08042 1.8681L8.83285 0.901057C8.73872 0.730077 8.63646 0.544302 8.52975 0.357366L6.79238 1.35128ZM5.43205 5.65585C4.6038 5.65585 3.93097 6.32714 3.92908 7.15539L5.92908 7.1563C5.92845 7.43226 5.70436 7.65584 5.4284 7.65584L5.43205 5.65585ZM8.6849 5.65585L5.43205 5.65585L5.4284 7.65584L8.68125 7.65584L8.6849 5.65585ZM10.1819 7.1563C10.1838 6.3277 9.5135 5.65585 8.6849 5.65585L8.68125 7.65584C8.40492 7.65584 8.1813 7.43171 8.18193 7.15539L10.1819 7.1563ZM8.67897 8.65584C9.50721 8.65584 10.18 7.98455 10.1819 7.1563L8.18193 7.15539C8.18256 6.87942 8.40665 6.65584 8.68261 6.65584L8.67897 8.65584ZM5.42612 8.65584L8.67897 8.65584L8.68261 6.65584L5.42977 6.65584L5.42612 8.65584ZM3.92908 7.15539C3.92719 7.98399 4.59751 8.65584 5.42612 8.65584L5.42977 6.65584C5.70609 6.65584 5.92971 6.87998 5.92908 7.1563L3.92908 7.15539ZM12.4343 7.15556C12.4336 7.43152 12.2095 7.6551 11.9336 7.6551L11.9372 5.6551C11.109 5.6551 10.4362 6.3264 10.4343 7.15465L12.4343 7.15556ZM11.935 6.6551C12.2113 6.6551 12.4349 6.87924 12.4343 7.15556L10.4343 7.15465C10.4324 7.98325 11.1027 8.6551 11.9313 8.6551L11.935 6.6551ZM15.1878 6.6551L11.935 6.6551L11.9313 8.6551H15.1841L15.1878 6.6551ZM14.6871 7.15465C14.6877 6.87868 14.9118 6.6551 15.1878 6.6551L15.1841 8.6551C16.0124 8.6551 16.6852 7.98381 16.6871 7.15556L14.6871 7.15465ZM15.1864 7.6551C14.9101 7.6551 14.6865 7.43097 14.6871 7.15465L16.6871 7.15556C16.689 6.32696 16.0187 5.65511 15.1901 5.65511L15.1864 7.6551ZM11.9336 7.6551L15.1864 7.6551L15.1901 5.65511L11.9372 5.6551L11.9336 7.6551ZM5.41117 16.7071C4.58292 16.7071 3.91009 17.3784 3.9082 18.2066L5.9082 18.2076C5.90757 18.4835 5.68348 18.7071 5.40752 18.7071L5.41117 16.7071ZM8.66401 16.7071L5.41117 16.7071L5.40752 18.7071L8.66036 18.7071L8.66401 16.7071ZM10.161 18.2076C10.1629 17.379 9.49262 16.7071 8.66401 16.7071L8.66036 18.7071C8.38404 18.7071 8.16042 18.483 8.16105 18.2066L10.161 18.2076ZM8.65808 19.7071C9.48633 19.7071 10.1592 19.0358 10.161 18.2076L8.16105 18.2066C8.16168 17.9307 8.38577 17.7071 8.66173 17.7071L8.65808 19.7071ZM5.40524 19.7071L8.65808 19.7071L8.66173 17.7071L5.40889 17.7071L5.40524 19.7071ZM3.9082 18.2066C3.90631 19.0352 4.57663 19.7071 5.40524 19.7071L5.40889 17.7071C5.68521 17.7071 5.90883 17.9312 5.9082 18.2076L3.9082 18.2066ZM12.4139 18.2068C12.4132 18.4828 12.1892 18.7064 11.9132 18.7064L11.9168 16.7064C11.0886 16.7064 10.4158 17.3777 10.4139 18.2059L12.4139 18.2068ZM11.9146 17.7064C12.1909 17.7064 12.4145 17.9305 12.4139 18.2068L10.4139 18.2059C10.412 19.0345 11.0823 19.7064 11.9109 19.7064L11.9146 17.7064ZM15.1674 17.7064L11.9146 17.7064L11.9109 19.7064L15.1638 19.7064L15.1674 17.7064ZM14.6667 18.2059C14.6674 17.9299 14.8914 17.7064 15.1674 17.7064L15.1638 19.7064C15.992 19.7064 16.6648 19.0351 16.6667 18.2068L14.6667 18.2059ZM15.166 18.7064C14.8897 18.7064 14.6661 18.4822 14.6667 18.2059L16.6667 18.2068C16.6686 17.3782 15.9983 16.7064 15.1697 16.7064L15.166 18.7064ZM11.9132 18.7064H15.166L15.1697 16.7064H11.9168L11.9132 18.7064ZM6.71557 1.16542C6.66479 1.11417 6.6497 1.07558 6.66966 1.1137C6.68049 1.13438 6.68866 1.15148 6.71113 1.1969C6.72977 1.23456 6.758 1.29105 6.79238 1.35128L8.52975 0.357366C8.49433 0.295324 8.52587 0.343907 8.44183 0.183423C8.3904 0.0852024 8.29598 -0.0836717 8.13759 -0.243534L6.71557 1.16542ZM7.94506 1.36395C7.58386 0.707647 6.89618 0.313219 6.1602 0.313164L6.15641 2.31316C6.17803 2.31316 6.18867 2.3238 6.19246 2.3307L7.94506 1.36395ZM14.8504 0.311594C13.8935 0.311701 12.9768 0.799429 12.4751 1.66007L14.2025 2.66493C14.326 2.45317 14.5636 2.31162 14.847 2.31159L14.8504 0.311594ZM12.4761 -0.211258C12.3514 -0.0777592 12.2705 0.0577524 12.2269 0.133381C12.2089 0.164719 12.1804 0.216048 12.174 0.227443C12.1611 0.250256 12.1562 0.258078 12.1549 0.260095L13.8332 1.34478C13.8676 1.29172 13.8958 1.24253 13.9154 1.20781C13.9249 1.19097 13.9351 1.17271 13.9417 1.16085C13.9493 1.14729 13.9548 1.13754 13.9596 1.12913C13.9819 1.09044 13.9714 1.11519 13.9363 1.15281L12.4761 -0.211258ZM12.4732 23.7567C12.9367 24.5622 13.7913 25.025 14.6896 25.0249L14.693 23.0249C14.4773 23.0249 14.2988 22.9162 14.2072 22.7569L12.4732 23.7567ZM5.99917 25.0259C6.81131 25.0258 7.57823 24.5989 7.9905 23.8737L6.25222 22.8877C6.2067 22.9678 6.11608 23.0259 6.00259 23.0259L5.99917 25.0259Z" fill="url(#paint0_linear)" mask="url(#path-1-inside-1)"/>
<defs>
<linearGradient id="paint0_linear" x1="10.3207" y1="0.311279" x2="10.3207" y2="25.0262" gradientUnits="userSpaceOnUse">
<stop stop-color="#B727F3"/>
<stop offset="1" stop-color="#DB4CAA"/>
</linearGradient>
</defs>
</svg>
